<svg xmlns="http://www.w3.org/2000/svg" width="7420" height="1144" viewBox="0 0 7420 1144">
  <g fill="none">
    <path fill="#B70C01" d="M4324,1137 C4330,1127 4563,779 4642,661 L4701,572 L4593,412 C4534,324 4481,245 4475,236 C4470,228 4433,172 4393,113 L4321,4 L4508,4 L4695,5 L4748,87 C4777,132 4821,198 4845,233 L4889,296 L4942,217 C4971,173 5015,108 5040,71 L5085,4 L5423,4 C5655,4 5760,7 5760,15 C5760,21 5797,79 5843,144 C5888,210 5930,271 5935,280 C5946,296 5963,274 6118,42 L6144,4 L6452,4 L6760,4 L6760,409 L6760,814 L7090,814 L7420,814 L7420,979 L7420,1144 L6788,1144 L6155,1143 L6115,1088 C6052,1001 6023,962 5995,924 C5980,905 5963,881 5956,870 C5945,854 5934,867 5845,998 L5747,1144 L5421,1144 L5095,1143 L5055,1089 C5033,1059 5004,1019 4990,999 C4932,915 4888,864 4880,869 C4869,876 4765,1029 4726,1097 L4698,1144 L4508,1144 C4404,1144 4321,1141 4324,1137 Z M5467,1006 C5488,975 5537,904 5575,849 C5613,794 5665,717 5691,677 C5718,638 5744,603 5750,599 C5768,588 5760,560 5723,509 C5683,455 5598,330 5488,165 L5418,61 L5367,140 C5339,184 5262,299 5197,397 L5079,576 L5125,642 C5151,679 5226,791 5293,891 C5360,991 5418,1070 5422,1068 C5425,1066 5446,1038 5467,1006 Z M6428,360 L6425,144 L6281,359 L6138,573 L6176,633 C6198,666 6262,762 6320,845 L6425,997 L6428,786 C6429,670 6429,478 6428,360 Z"/>
    <path fill="#FFF" d="M0,574 L0,4 L374,4 C537.819129,-0.903069269 662.819129,-0.903069269 749,4 C878.271307,11.3546039 1005,128 1047,264 C1050,275 1057,271 1073,249 C1149,144 1251,66 1357,31 C1454,-1.42491574e-12 1646,-1.42491574e-12 1739,32 C1863,75 1953,148 2042,281 L2077,332 L2120,268 C2232,99 2405,4 2602,4 C2768,4 2903,59 3018,175 L3090,247 L3090,126 L3090,4 L3255,4 L3420,4 L3422,203 L3425,402 L3495,313 C3534,263 3605,174 3653,114 L3741,4 L3946,4 L4152,4 L4133,28 C4100,72 3957,247 3835,394 C3769,474 3709,547 3702,556 C3690,571 3706,595 3843,761 C4071,1039 4124,1104 4139,1125 C4152,1144 4147,1144 3948,1144 L3744,1144 L3584,944 L3425,745 L3422,944 L3420,1144 L3255,1144 L3090,1144 L3090,1024 C3090,958 3089,904 3087,904 C3086,904 3053,935 3015,972 C2893,1091 2801,1133 2640,1141 C2551,1146 2522,1143 2451,1124 C2309,1085 2164,969 2099,842 L2079,802 L2044,861 C2001,932 1944,992 1865,1049 C1783,1108 1698,1135 1575,1141 C1400,1150 1263,1098 1144,977 C1070,902 1030,836 996,731 C990,714 987,715 955,743 C910,783 874,801 825,809 C740,823 736,815 906,985 L1065,1144 L855,1144 L645,1144 L488,987 L330,829 L330,987 L330,1144 L165,1144 L0,1144 L0,574 Z M1648,795 C1692,773 1766,696 1780,658 C1786,644 1790,605 1790,570 C1790,485 1748,413 1670,367 C1623,338 1607,334 1548,334 C1469,334 1423,353 1374,406 C1326,457 1310,499 1310,572 C1310,675 1358,753 1447,795 C1500,819 1600,820 1648,795 Z M2703,798 C2727,786 2766,749.666667 2820,689 C2832,665.666667 2878.33333,672.333333 2959,709 C3026,739 3083,764 3086,764 C3088,764 3090,679 3090,574 C3090,470 3087,384 3083,384 C3079,384 3044,399 3005,418 C2897.66667,470.666667 2836,484.333333 2820,459 C2766,398.333333 2727,362 2703,350 C2683,340 2646,334 2605,334 C2524,334 2478,355 2422,419 C2316,540 2358,725 2507,795 C2557,818 2660,819 2703,798 Z M714,462 C723,450 730,426 730,409 C730,392 723,368 714,356 C699,335 694,334 514,334 L330,334 L330,409 L330,484 L514,484 C694,484 699,483 714,462 Z"/>
  </g>
</svg>
